<?xml version="1.0" ?><!-- Uploaded to: SVG Repo, www.svgrepo.com, Generator: SVG Repo Mixer Tools -->
<svg width="800px" height="800px" viewBox="0 0 64 64" data-name="Layer 1" id="Layer_1" xmlns="http://www.w3.org/2000/svg"><defs><style>.cls-1{fill:#231f20;}</style></defs><title/><path class="cls-1" d="M39.58,30.21a3.29,3.29,0,1,1,3.3-3.29A3.3,3.3,0,0,1,39.58,30.21Zm0-4.58a1.29,1.29,0,1,0,1.3,1.29A1.29,1.29,0,0,0,39.58,25.63Z"/><path class="cls-1" d="M35,36.79a3.33,3.33,0,1,1,3.33-3.33A3.34,3.34,0,0,1,35,36.79Zm0-4.66a1.33,1.33,0,1,0,1.33,1.33A1.34,1.34,0,0,0,35,32.13Z"/><path class="cls-1" d="M42.92,37.92a3.41,3.41,0,1,1,3.41-3.41A3.41,3.41,0,0,1,42.92,37.92Zm0-4.82a1.41,1.41,0,1,0,1.41,1.41A1.41,1.41,0,0,0,42.92,33.1Z"/><path class="cls-1" d="M32,52.07A20.07,20.07,0,1,1,52.07,32,20.09,20.09,0,0,1,32,52.07Zm0-38.14A18.07,18.07,0,1,0,50.07,32,18.1,18.1,0,0,0,32,13.93Z"/></svg>