<?xml version="1.0" encoding="iso-8859-1"?>
<!-- Uploaded to: SVG Repo, www.svgrepo.com, Generator: SVG Repo Mixer Tools -->
<!DOCTYPE svg PUBLIC "-//W3C//DTD SVG 1.1//EN" "http://www.w3.org/Graphics/SVG/1.1/DTD/svg11.dtd">
<svg fill="#000000" version="1.1" id="Capa_1" xmlns="http://www.w3.org/2000/svg" xmlns:xlink="http://www.w3.org/1999/xlink" 
	 width="800px" height="800px" viewBox="0 0 469.492 469.491"
	 xml:space="preserve">
<g>
	<g id="_x36_9_62_">
		<path d="M325.146,0H144.348c-4.014,0-7.268,3.254-7.268,7.268s3.254,7.268,7.268,7.268h74.613
			c-1.262,2.926-1.988,6.238-1.988,9.756c0,5.09,1.498,9.764,3.99,13.434c-2.492,3.67-3.99,8.346-3.99,13.436
			c0,5.299,1.631,10.141,4.309,13.873c-2.678,3.734-4.309,8.576-4.309,13.875c0,5.09,1.498,9.766,3.99,13.434
			c-2.492,3.67-3.99,8.346-3.99,13.436c0,5.299,1.631,10.141,4.309,13.875c-2.678,3.732-4.309,8.576-4.309,13.875
			c0,5.088,1.498,9.764,3.99,13.432c-2.492,3.67-3.99,8.346-3.99,13.436c0,5.299,1.631,10.141,4.309,13.875
			c-2.678,3.732-4.309,8.576-4.309,13.875c0,3.482,0.715,6.766,1.955,9.672c-3.328,1.438-6.398,3.311-9.137,5.549h-3.869
			c-19.898,0-36.029,16.131-36.029,36.029v189.748c0,19.897,16.131,36.028,36.029,36.028c0,0,17.824,4.316,30.215,4.316
			c12.392,0,27.435-4.316,27.435-4.316c19.897,0,36.028-16.131,36.028-36.028V239.395c0-19.898-16.131-36.029-36.028-36.029h-3.869
			c-2.738-2.238-5.812-4.111-9.138-5.549c1.24-2.908,1.955-6.189,1.955-9.672c0-5.299-1.631-10.143-4.309-13.875
			c2.678-3.734,4.309-8.576,4.309-13.875c0-5.09-1.5-9.766-3.989-13.436c2.489-3.668,3.989-8.344,3.989-13.432
			c0-5.299-1.631-10.143-4.309-13.875c2.678-3.734,4.309-8.576,4.309-13.875c0-5.09-1.5-9.766-3.989-13.437
			c2.489-3.668,3.989-8.344,3.989-13.434c0-5.299-1.631-10.141-4.309-13.875c2.678-3.732,4.309-8.574,4.309-13.873
			c0-5.09-1.5-9.766-3.989-13.436c2.489-3.67,3.989-8.344,3.989-13.434c0-3.518-0.727-6.83-1.989-9.756h74.616
			c4.012,0,7.266-3.254,7.266-7.268S329.158,0,325.146,0z M234.746,45.609c2.625,0,5.111-0.705,7.357-1.938
			c1.137,2.119,1.826,4.713,1.826,7.488c0,3.07-0.836,5.924-2.199,8.15c-2.146-1.104-4.506-1.719-6.984-1.719
			c-2.478,0-4.84,0.615-6.984,1.719c-1.363-2.227-2.199-5.08-2.199-8.15c0-2.775,0.688-5.369,1.826-7.488
			C229.633,44.904,232.119,45.609,234.746,45.609z M243.929,78.908c0,2.775-0.688,5.367-1.826,7.486
			c-2.243-1.23-4.731-1.936-7.356-1.936c-2.627,0-5.113,0.705-7.359,1.936c-1.137-2.119-1.824-4.711-1.824-7.486
			c0-3.07,0.836-5.924,2.199-8.152c2.145,1.105,4.506,1.721,6.984,1.721c2.478,0,4.838-0.615,6.983-1.721
			C243.093,72.984,243.929,75.838,243.929,78.908z M243.929,105.777c0,3.07-0.836,5.924-2.199,8.15
			c-2.146-1.104-4.506-1.719-6.983-1.719c-2.478,0-4.84,0.615-6.984,1.719c-1.363-2.227-2.199-5.08-2.199-8.15
			c0-2.775,0.688-5.367,1.824-7.486c2.246,1.23,4.732,1.936,7.359,1.936c2.625,0,5.112-0.705,7.356-1.936
			C243.24,100.41,243.929,103.002,243.929,105.777z M243.929,133.527c0,2.773-0.688,5.367-1.826,7.484
			c-2.243-1.23-4.729-1.936-7.356-1.936s-5.113,0.705-7.359,1.936c-1.137-2.117-1.824-4.711-1.824-7.484
			c0-3.07,0.836-5.926,2.199-8.152c2.145,1.104,4.506,1.721,6.984,1.721c2.478,0,4.838-0.617,6.983-1.721
			C243.093,127.601,243.929,130.457,243.929,133.527z M243.929,160.394c0,3.07-0.836,5.924-2.199,8.15
			c-2.146-1.104-4.506-1.719-6.983-1.719c-2.478,0-4.84,0.615-6.984,1.719c-1.363-2.227-2.199-5.08-2.199-8.15
			c0-2.775,0.688-5.367,1.824-7.486c2.246,1.23,4.732,1.936,7.359,1.936c2.625,0,5.112-0.705,7.356-1.936
			C243.24,155.027,243.929,157.619,243.929,160.394z M234.746,194.562c-2.586,0-5.109,0.248-7.553,0.713
			c-1.023-2.051-1.631-4.514-1.631-7.131c0-3.07,0.836-5.926,2.199-8.152c2.145,1.104,4.506,1.721,6.984,1.721
			c2.478,0,4.838-0.617,6.983-1.721c1.363,2.227,2.199,5.082,2.199,8.152c0,2.617-0.606,5.08-1.633,7.131
			C239.855,194.81,237.332,194.562,234.746,194.562z M243.929,24.291c0,2.775-0.688,5.367-1.826,7.486
			c-2.243-1.23-4.731-1.937-7.356-1.937c-2.627,0-5.113,0.705-7.359,1.937c-1.137-2.119-1.824-4.711-1.824-7.486
			c0-3.869,1.322-7.4,3.361-9.756h11.643C242.605,16.891,243.929,20.422,243.929,24.291z"/>
	</g>
</g>
</svg>