<?xml version="1.0" encoding="iso-8859-1"?>
<!-- Uploaded to: SVG Repo, www.svgrepo.com, Generator: SVG Repo Mixer Tools -->
<svg fill="#000000" height="800px" width="800px" version="1.1" id="Layer_1" xmlns="http://www.w3.org/2000/svg" xmlns:xlink="http://www.w3.org/1999/xlink" 
	 viewBox="0 0 512 512" xml:space="preserve">
<g>
	<g>
		<path d="M448,373.333H131.85L167.405,160h67.261c11.782,0,21.333-9.551,21.333-21.333c0-11.782-9.551-21.333-21.333-21.333
			h-85.333H128c-47.183,0-85.333-38.15-85.333-85.333c0-11.782-9.551-21.333-21.333-21.333C9.551,10.667,0,20.218,0,32
			c0,47.046,25.323,88.117,63.09,110.361L21.969,389.086C8.513,400.817,0,418.073,0,437.333c0,35.355,28.645,64,64,64h384
			c35.355,0,64-28.645,64-64C512,401.978,483.355,373.333,448,373.333z M67.85,373.333L103.405,160h20.745L88.595,373.333H67.85z
			 M42.667,437.333C42.667,425.542,52.209,416,64,416s21.333,9.542,21.333,21.333S75.791,458.667,64,458.667
			S42.667,449.125,42.667,437.333z M124.361,458.667c0.202-0.571,0.385-1.151,0.571-1.73c0.072-0.225,0.152-0.446,0.222-0.672
			c0.288-0.933,0.556-1.875,0.802-2.826c0.06-0.232,0.11-0.469,0.168-0.702c0.179-0.723,0.349-1.449,0.503-2.182
			c0.073-0.347,0.136-0.697,0.203-1.046c0.122-0.631,0.237-1.265,0.34-1.902c0.061-0.379,0.117-0.759,0.172-1.139
			c0.09-0.628,0.169-1.26,0.24-1.894c0.042-0.376,0.086-0.752,0.121-1.13c0.065-0.684,0.114-1.373,0.157-2.063
			c0.02-0.327,0.047-0.651,0.063-0.979c0.048-1.017,0.078-2.039,0.078-3.068s-0.03-2.051-0.078-3.068
			c-0.016-0.328-0.043-0.652-0.063-0.979c-0.043-0.69-0.092-1.379-0.157-2.064c-0.036-0.378-0.079-0.753-0.121-1.129
			c-0.071-0.634-0.151-1.266-0.241-1.894c-0.054-0.381-0.111-0.76-0.172-1.139c-0.103-0.638-0.218-1.271-0.34-1.902
			c-0.067-0.349-0.131-0.699-0.203-1.046c-0.154-0.732-0.325-1.458-0.503-2.181c-0.058-0.234-0.108-0.47-0.168-0.703
			c-0.246-0.951-0.514-1.893-0.802-2.826c-0.07-0.227-0.15-0.449-0.222-0.674c-0.186-0.578-0.368-1.157-0.57-1.728H387.64
			c-0.201,0.569-0.383,1.146-0.568,1.722c-0.073,0.228-0.154,0.452-0.225,0.682c-0.288,0.932-0.555,1.873-0.801,2.823
			c-0.061,0.236-0.112,0.475-0.17,0.711c-0.178,0.72-0.348,1.443-0.501,2.172c-0.073,0.348-0.137,0.699-0.204,1.049
			c-0.121,0.631-0.237,1.263-0.339,1.901c-0.061,0.378-0.117,0.758-0.172,1.139c-0.09,0.628-0.169,1.259-0.24,1.893
			c-0.042,0.377-0.086,0.753-0.122,1.132c-0.065,0.683-0.114,1.37-0.157,2.06c-0.02,0.327-0.048,0.653-0.063,0.982
			c-0.048,1.017-0.078,2.039-0.078,3.068s0.03,2.051,0.078,3.068c0.016,0.329,0.043,0.654,0.063,0.982
			c0.043,0.689,0.092,1.376,0.156,2.059c0.036,0.379,0.079,0.756,0.122,1.133c0.071,0.634,0.151,1.265,0.24,1.893
			c0.054,0.381,0.111,0.761,0.172,1.139c0.103,0.637,0.218,1.27,0.339,1.9c0.067,0.35,0.131,0.701,0.204,1.049
			c0.153,0.73,0.323,1.453,0.501,2.173c0.058,0.236,0.109,0.476,0.17,0.711c0.246,0.95,0.513,1.891,0.801,2.823
			c0.071,0.228,0.151,0.452,0.224,0.679c0.185,0.577,0.367,1.154,0.569,1.724H124.361z M448,458.667
			c-11.791,0-21.333-9.542-21.333-21.333S436.209,416,448,416s21.333,9.542,21.333,21.333S459.791,458.667,448,458.667z"/>
	</g>
</g>
</svg>